<mxfile host="app.diagrams.net" modified="2024-05-03T22:25:13.951Z" agent="Mozilla/5.0 (Macintosh; Intel Mac OS X 10.15; rv:125.0) Gecko/20100101 Firefox/125.0" etag="7_3ALA6v56Oo8HYN6H-c" version="24.3.1" type="device">
  <diagram name="Страница — 1" id="toLQaYgm2Inr8ghhp8vf">
    <mxGraphModel dx="1615" dy="1042" grid="1" gridSize="10" guides="1" tooltips="1" connect="1" arrows="1" fold="1" page="1" pageScale="1" pageWidth="1169" pageHeight="827" math="0" shadow="0">
      <root>
        <mxCell id="0" />
        <mxCell id="1" parent="0" />
        <mxCell id="BLIlMsvHAk1N6OKUDyT1-1" value="&lt;div&gt;SWR&lt;/div&gt;&lt;div&gt;Bridge&lt;/div&gt;" style="rounded=0;whiteSpace=wrap;html=1;" vertex="1" parent="1">
          <mxGeometry x="30" y="370" width="70" height="60" as="geometry" />
        </mxCell>
        <mxCell id="BLIlMsvHAk1N6OKUDyT1-2" value="" style="verticalLabelPosition=bottom;shadow=0;dashed=0;align=center;html=1;verticalAlign=top;shape=mxgraph.electrical.radio.aerial_-_antenna_1;" vertex="1" parent="1">
          <mxGeometry y="305" width="40" height="50" as="geometry" />
        </mxCell>
        <mxCell id="BLIlMsvHAk1N6OKUDyT1-4" value="" style="endArrow=none;html=1;rounded=0;entryX=0.5;entryY=1;entryDx=0;entryDy=0;entryPerimeter=0;exitX=0;exitY=0.5;exitDx=0;exitDy=0;" edge="1" parent="1" source="BLIlMsvHAk1N6OKUDyT1-1" target="BLIlMsvHAk1N6OKUDyT1-2">
          <mxGeometry width="50" height="50" relative="1" as="geometry">
            <mxPoint x="310" y="530" as="sourcePoint" />
            <mxPoint x="360" y="480" as="targetPoint" />
            <Array as="points">
              <mxPoint x="20" y="400" />
            </Array>
          </mxGeometry>
        </mxCell>
        <mxCell id="BLIlMsvHAk1N6OKUDyT1-5" value="&lt;div style=&quot;font-size: 23px;&quot;&gt;&lt;font style=&quot;font-size: 23px;&quot;&gt;HBR/MK2 Block Diagram&lt;/font&gt;&lt;/div&gt;&lt;div style=&quot;font-size: 23px;&quot;&gt;&lt;font style=&quot;font-size: 23px;&quot;&gt;&lt;font style=&quot;font-size: 23px;&quot;&gt;https://github.com/afiskon/hbr-mk2&lt;/font&gt;&lt;font style=&quot;font-size: 23px;&quot;&gt;&lt;br&gt;&lt;/font&gt;&lt;/font&gt;&lt;/div&gt;" style="text;html=1;align=center;verticalAlign=middle;whiteSpace=wrap;rounded=0;" vertex="1" parent="1">
          <mxGeometry x="459" y="150" width="370" height="60" as="geometry" />
        </mxCell>
        <mxCell id="BLIlMsvHAk1N6OKUDyT1-8" value="" style="rounded=0;whiteSpace=wrap;html=1;" vertex="1" parent="1">
          <mxGeometry x="110" y="370" width="50" height="43" as="geometry" />
        </mxCell>
        <mxCell id="BLIlMsvHAk1N6OKUDyT1-7" value="" style="verticalLabelPosition=bottom;shadow=0;dashed=0;align=center;html=1;verticalAlign=bottom;shape=mxgraph.electrical.logic_gates.lowpass_filter;spacing=2;" vertex="1" parent="1">
          <mxGeometry x="120" y="377" width="52" height="46" as="geometry" />
        </mxCell>
        <mxCell id="BLIlMsvHAk1N6OKUDyT1-9" value="" style="endArrow=none;html=1;rounded=0;exitX=1;exitY=0.5;exitDx=0;exitDy=0;" edge="1" parent="1" source="BLIlMsvHAk1N6OKUDyT1-1">
          <mxGeometry width="50" height="50" relative="1" as="geometry">
            <mxPoint x="240" y="400" as="sourcePoint" />
            <mxPoint x="110" y="400" as="targetPoint" />
          </mxGeometry>
        </mxCell>
        <mxCell id="BLIlMsvHAk1N6OKUDyT1-10" value="w/ static bleeder" style="text;html=1;align=center;verticalAlign=middle;whiteSpace=wrap;rounded=0;" vertex="1" parent="1">
          <mxGeometry x="20" y="430" width="90" height="30" as="geometry" />
        </mxCell>
        <mxCell id="BLIlMsvHAk1N6OKUDyT1-11" value="&lt;div&gt;LPFs&lt;/div&gt;" style="text;html=1;align=center;verticalAlign=middle;whiteSpace=wrap;rounded=0;" vertex="1" parent="1">
          <mxGeometry x="116" y="430" width="60" height="30" as="geometry" />
        </mxCell>
        <mxCell id="BLIlMsvHAk1N6OKUDyT1-12" value="" style="html=1;shape=mxgraph.electrical.electro-mechanical.twoWaySwitch;aspect=fixed;elSwitchState=2;" vertex="1" parent="1">
          <mxGeometry x="464" y="390" width="57.69" height="20" as="geometry" />
        </mxCell>
        <mxCell id="BLIlMsvHAk1N6OKUDyT1-13" value="" style="endArrow=none;html=1;rounded=0;exitX=1;exitY=0.5;exitDx=0;exitDy=0;exitPerimeter=0;entryX=0;entryY=0.5;entryDx=0;entryDy=0;" edge="1" parent="1" target="BLIlMsvHAk1N6OKUDyT1-12">
          <mxGeometry width="50" height="50" relative="1" as="geometry">
            <mxPoint x="460" y="400" as="sourcePoint" />
            <mxPoint x="488" y="350" as="targetPoint" />
          </mxGeometry>
        </mxCell>
        <mxCell id="BLIlMsvHAk1N6OKUDyT1-14" value="" style="verticalLabelPosition=bottom;shadow=0;dashed=0;align=center;html=1;verticalAlign=top;shape=mxgraph.electrical.abstract.amplifier;" vertex="1" parent="1">
          <mxGeometry x="544" y="310" width="50" height="50" as="geometry" />
        </mxCell>
        <mxCell id="BLIlMsvHAk1N6OKUDyT1-15" value="" style="endArrow=none;html=1;rounded=0;entryX=0;entryY=0.5;entryDx=0;entryDy=0;entryPerimeter=0;exitX=1;exitY=0.12;exitDx=0;exitDy=0;" edge="1" parent="1" source="BLIlMsvHAk1N6OKUDyT1-12" target="BLIlMsvHAk1N6OKUDyT1-14">
          <mxGeometry width="50" height="50" relative="1" as="geometry">
            <mxPoint x="424" y="400" as="sourcePoint" />
            <mxPoint x="504" y="330" as="targetPoint" />
            <Array as="points">
              <mxPoint x="522" y="335" />
            </Array>
          </mxGeometry>
        </mxCell>
        <mxCell id="BLIlMsvHAk1N6OKUDyT1-19" value="" style="verticalLabelPosition=bottom;shadow=0;dashed=0;align=center;html=1;verticalAlign=top;shape=mxgraph.electrical.abstract.amplifier;" vertex="1" parent="1">
          <mxGeometry x="698" y="310" width="50" height="50" as="geometry" />
        </mxCell>
        <mxCell id="BLIlMsvHAk1N6OKUDyT1-22" value="" style="pointerEvents=1;verticalLabelPosition=bottom;shadow=0;dashed=0;align=center;html=1;verticalAlign=top;shape=mxgraph.electrical.resistors.resistor_2;rotation=-90;" vertex="1" parent="1">
          <mxGeometry x="748" y="330" width="30" height="10" as="geometry" />
        </mxCell>
        <mxCell id="BLIlMsvHAk1N6OKUDyT1-29" value="" style="shape=sumEllipse;perimeter=ellipsePerimeter;whiteSpace=wrap;html=1;backgroundOutline=1;" vertex="1" parent="1">
          <mxGeometry x="624" y="315" width="40" height="40" as="geometry" />
        </mxCell>
        <mxCell id="BLIlMsvHAk1N6OKUDyT1-30" value="" style="pointerEvents=1;verticalLabelPosition=bottom;shadow=0;dashed=0;align=center;html=1;verticalAlign=top;shape=mxgraph.electrical.signal_sources.source;aspect=fixed;points=[[0.5,0,0],[1,0.5,0],[0.5,1,0],[0,0.5,0]];elSignalType=square;" vertex="1" parent="1">
          <mxGeometry x="624" y="380" width="40" height="40" as="geometry" />
        </mxCell>
        <mxCell id="BLIlMsvHAk1N6OKUDyT1-31" value="" style="pointerEvents=1;verticalLabelPosition=bottom;shadow=0;dashed=0;align=center;html=1;verticalAlign=top;shape=mxgraph.electrical.signal_sources.source;aspect=fixed;points=[[0.5,0,0],[1,0.5,0],[0.5,1,0],[0,0.5,0]];elSignalType=ac;" vertex="1" parent="1">
          <mxGeometry x="1187.31" y="373.75" width="40" height="40" as="geometry" />
        </mxCell>
        <mxCell id="BLIlMsvHAk1N6OKUDyT1-32" value="" style="shape=sumEllipse;perimeter=ellipsePerimeter;whiteSpace=wrap;html=1;backgroundOutline=1;" vertex="1" parent="1">
          <mxGeometry x="624" y="440" width="40" height="40" as="geometry" />
        </mxCell>
        <mxCell id="BLIlMsvHAk1N6OKUDyT1-33" value="" style="verticalLabelPosition=bottom;shadow=0;dashed=0;align=center;html=1;verticalAlign=top;shape=mxgraph.electrical.abstract.amplifier;rotation=-180;" vertex="1" parent="1">
          <mxGeometry x="559" y="435" width="50" height="50" as="geometry" />
        </mxCell>
        <mxCell id="BLIlMsvHAk1N6OKUDyT1-34" value="" style="pointerEvents=1;verticalLabelPosition=bottom;shadow=0;dashed=0;align=center;html=1;verticalAlign=top;shape=mxgraph.electrical.resistors.resistor_2;rotation=-90;" vertex="1" parent="1">
          <mxGeometry x="529" y="455" width="30" height="10" as="geometry" />
        </mxCell>
        <mxCell id="BLIlMsvHAk1N6OKUDyT1-35" value="" style="endArrow=none;html=1;rounded=0;exitX=1;exitY=0.88;exitDx=0;exitDy=0;entryX=1;entryY=0.5;entryDx=0;entryDy=0;entryPerimeter=0;" edge="1" parent="1" source="BLIlMsvHAk1N6OKUDyT1-12" target="BLIlMsvHAk1N6OKUDyT1-33">
          <mxGeometry width="50" height="50" relative="1" as="geometry">
            <mxPoint x="608" y="450" as="sourcePoint" />
            <mxPoint x="658" y="400" as="targetPoint" />
            <Array as="points">
              <mxPoint x="522" y="460" />
            </Array>
          </mxGeometry>
        </mxCell>
        <mxCell id="BLIlMsvHAk1N6OKUDyT1-37" value="" style="endArrow=classic;html=1;rounded=0;exitX=0.5;exitY=1;exitDx=0;exitDy=0;exitPerimeter=0;entryX=0.5;entryY=0;entryDx=0;entryDy=0;" edge="1" parent="1" source="BLIlMsvHAk1N6OKUDyT1-30" target="BLIlMsvHAk1N6OKUDyT1-32">
          <mxGeometry width="50" height="50" relative="1" as="geometry">
            <mxPoint x="628" y="450" as="sourcePoint" />
            <mxPoint x="678" y="400" as="targetPoint" />
          </mxGeometry>
        </mxCell>
        <mxCell id="BLIlMsvHAk1N6OKUDyT1-38" value="" style="endArrow=classic;html=1;rounded=0;exitX=0.5;exitY=0;exitDx=0;exitDy=0;exitPerimeter=0;entryX=0.5;entryY=1;entryDx=0;entryDy=0;" edge="1" parent="1" source="BLIlMsvHAk1N6OKUDyT1-30" target="BLIlMsvHAk1N6OKUDyT1-29">
          <mxGeometry width="50" height="50" relative="1" as="geometry">
            <mxPoint x="628" y="450" as="sourcePoint" />
            <mxPoint x="678" y="400" as="targetPoint" />
          </mxGeometry>
        </mxCell>
        <mxCell id="BLIlMsvHAk1N6OKUDyT1-39" value="" style="endArrow=none;html=1;rounded=0;exitX=1;exitY=0.5;exitDx=0;exitDy=0;exitPerimeter=0;entryX=0;entryY=0.5;entryDx=0;entryDy=0;" edge="1" parent="1" source="BLIlMsvHAk1N6OKUDyT1-14" target="BLIlMsvHAk1N6OKUDyT1-29">
          <mxGeometry width="50" height="50" relative="1" as="geometry">
            <mxPoint x="598" y="310" as="sourcePoint" />
            <mxPoint x="648" y="260" as="targetPoint" />
          </mxGeometry>
        </mxCell>
        <mxCell id="BLIlMsvHAk1N6OKUDyT1-40" value="" style="endArrow=none;html=1;rounded=0;entryX=0;entryY=0.5;entryDx=0;entryDy=0;entryPerimeter=0;exitX=1;exitY=0.5;exitDx=0;exitDy=0;" edge="1" parent="1" source="BLIlMsvHAk1N6OKUDyT1-29" target="BLIlMsvHAk1N6OKUDyT1-19">
          <mxGeometry width="50" height="50" relative="1" as="geometry">
            <mxPoint x="658" y="410" as="sourcePoint" />
            <mxPoint x="708" y="360" as="targetPoint" />
          </mxGeometry>
        </mxCell>
        <mxCell id="BLIlMsvHAk1N6OKUDyT1-41" value="" style="endArrow=none;html=1;rounded=0;entryX=1;entryY=0.5;entryDx=0;entryDy=0;entryPerimeter=0;" edge="1" parent="1" target="BLIlMsvHAk1N6OKUDyT1-19">
          <mxGeometry width="50" height="50" relative="1" as="geometry">
            <mxPoint x="790" y="393" as="sourcePoint" />
            <mxPoint x="708" y="360" as="targetPoint" />
            <Array as="points">
              <mxPoint x="790" y="335" />
            </Array>
          </mxGeometry>
        </mxCell>
        <mxCell id="BLIlMsvHAk1N6OKUDyT1-42" value="" style="endArrow=none;html=1;rounded=0;exitX=1;exitY=0.5;exitDx=0;exitDy=0;entryX=0.994;entryY=0.879;entryDx=0;entryDy=0;entryPerimeter=0;" edge="1" parent="1" source="BLIlMsvHAk1N6OKUDyT1-32" target="BLIlMsvHAk1N6OKUDyT1-60">
          <mxGeometry width="50" height="50" relative="1" as="geometry">
            <mxPoint x="668" y="440" as="sourcePoint" />
            <mxPoint x="788.3461400000001" y="408" as="targetPoint" />
            <Array as="points">
              <mxPoint x="790" y="460" />
            </Array>
          </mxGeometry>
        </mxCell>
        <mxCell id="BLIlMsvHAk1N6OKUDyT1-43" value="" style="verticalLabelPosition=bottom;shadow=0;dashed=0;align=center;html=1;verticalAlign=top;shape=mxgraph.electrical.abstract.amplifier;rotation=-180;" vertex="1" parent="1">
          <mxGeometry x="260" y="415" width="50" height="50" as="geometry" />
        </mxCell>
        <mxCell id="BLIlMsvHAk1N6OKUDyT1-44" value="" style="endArrow=none;html=1;rounded=0;exitX=0;exitY=0.5;exitDx=0;exitDy=0;entryX=0;entryY=0.5;entryDx=0;entryDy=0;entryPerimeter=0;" edge="1" parent="1" source="BLIlMsvHAk1N6OKUDyT1-32" target="BLIlMsvHAk1N6OKUDyT1-33">
          <mxGeometry width="50" height="50" relative="1" as="geometry">
            <mxPoint x="600" y="420" as="sourcePoint" />
            <mxPoint x="580" y="410" as="targetPoint" />
          </mxGeometry>
        </mxCell>
        <mxCell id="BLIlMsvHAk1N6OKUDyT1-45" value="" style="html=1;shape=mxgraph.electrical.electro-mechanical.twoWaySwitch;aspect=fixed;elSwitchState=2;" vertex="1" parent="1">
          <mxGeometry x="180" y="390" width="57.69" height="20" as="geometry" />
        </mxCell>
        <mxCell id="BLIlMsvHAk1N6OKUDyT1-54" value="" style="edgeStyle=orthogonalEdgeStyle;rounded=0;orthogonalLoop=1;jettySize=auto;html=1;" edge="1" parent="1" source="BLIlMsvHAk1N6OKUDyT1-47" target="BLIlMsvHAk1N6OKUDyT1-46">
          <mxGeometry relative="1" as="geometry" />
        </mxCell>
        <mxCell id="BLIlMsvHAk1N6OKUDyT1-47" value="" style="html=1;shape=mxgraph.electrical.electro-mechanical.twoWaySwitch;elSwitchState=2;flipV=0;flipH=1;" vertex="1" parent="1">
          <mxGeometry x="330" y="390" width="57.69" height="20" as="geometry" />
        </mxCell>
        <mxCell id="BLIlMsvHAk1N6OKUDyT1-48" value="" style="rounded=0;whiteSpace=wrap;html=1;" vertex="1" parent="1">
          <mxGeometry x="393" y="373.5" width="50" height="43" as="geometry" />
        </mxCell>
        <mxCell id="BLIlMsvHAk1N6OKUDyT1-46" value="" style="verticalLabelPosition=bottom;shadow=0;dashed=0;align=center;html=1;verticalAlign=top;shape=mxgraph.electrical.logic_gates.bandpass_filter;" vertex="1" parent="1">
          <mxGeometry x="400" y="380" width="52" height="46" as="geometry" />
        </mxCell>
        <mxCell id="BLIlMsvHAk1N6OKUDyT1-49" value="" style="endArrow=none;html=1;rounded=0;exitX=0;exitY=0.5;exitDx=0;exitDy=0;exitPerimeter=0;entryX=0.993;entryY=0.89;entryDx=0;entryDy=0;entryPerimeter=0;" edge="1" parent="1" source="BLIlMsvHAk1N6OKUDyT1-43" target="BLIlMsvHAk1N6OKUDyT1-47">
          <mxGeometry width="50" height="50" relative="1" as="geometry">
            <mxPoint x="290" y="440" as="sourcePoint" />
            <mxPoint x="330" y="410" as="targetPoint" />
            <Array as="points">
              <mxPoint x="330" y="440" />
            </Array>
          </mxGeometry>
        </mxCell>
        <mxCell id="BLIlMsvHAk1N6OKUDyT1-50" value="" style="endArrow=none;html=1;rounded=0;exitX=1;exitY=0.5;exitDx=0;exitDy=0;exitPerimeter=0;entryX=0;entryY=0.5;entryDx=0;entryDy=0;" edge="1" parent="1" source="BLIlMsvHAk1N6OKUDyT1-7" target="BLIlMsvHAk1N6OKUDyT1-45">
          <mxGeometry width="50" height="50" relative="1" as="geometry">
            <mxPoint x="280" y="440" as="sourcePoint" />
            <mxPoint x="330" y="390" as="targetPoint" />
          </mxGeometry>
        </mxCell>
        <mxCell id="BLIlMsvHAk1N6OKUDyT1-51" value="" style="endArrow=none;html=1;rounded=0;exitX=1;exitY=0.88;exitDx=0;exitDy=0;entryX=1;entryY=0.5;entryDx=0;entryDy=0;entryPerimeter=0;" edge="1" parent="1" source="BLIlMsvHAk1N6OKUDyT1-45" target="BLIlMsvHAk1N6OKUDyT1-43">
          <mxGeometry width="50" height="50" relative="1" as="geometry">
            <mxPoint x="280" y="440" as="sourcePoint" />
            <mxPoint x="330" y="390" as="targetPoint" />
            <Array as="points">
              <mxPoint x="238" y="440" />
            </Array>
          </mxGeometry>
        </mxCell>
        <mxCell id="BLIlMsvHAk1N6OKUDyT1-52" value="" style="endArrow=none;html=1;rounded=0;exitX=1;exitY=0.12;exitDx=0;exitDy=0;entryX=0.992;entryY=0.117;entryDx=0;entryDy=0;entryPerimeter=0;" edge="1" parent="1" source="BLIlMsvHAk1N6OKUDyT1-45" target="BLIlMsvHAk1N6OKUDyT1-47">
          <mxGeometry width="50" height="50" relative="1" as="geometry">
            <mxPoint x="260" y="390" as="sourcePoint" />
            <mxPoint x="310" y="400" as="targetPoint" />
          </mxGeometry>
        </mxCell>
        <mxCell id="BLIlMsvHAk1N6OKUDyT1-53" value="" style="endArrow=none;html=1;rounded=0;" edge="1" parent="1">
          <mxGeometry width="50" height="50" relative="1" as="geometry">
            <mxPoint x="388" y="400" as="sourcePoint" />
            <mxPoint x="390" y="400" as="targetPoint" />
          </mxGeometry>
        </mxCell>
        <mxCell id="BLIlMsvHAk1N6OKUDyT1-56" value="" style="endArrow=none;html=1;rounded=0;exitX=1.005;exitY=0.436;exitDx=0;exitDy=0;exitPerimeter=0;" edge="1" parent="1" source="BLIlMsvHAk1N6OKUDyT1-46">
          <mxGeometry width="50" height="50" relative="1" as="geometry">
            <mxPoint x="490" y="420" as="sourcePoint" />
            <mxPoint x="460" y="400" as="targetPoint" />
          </mxGeometry>
        </mxCell>
        <mxCell id="BLIlMsvHAk1N6OKUDyT1-57" value="" style="html=1;shape=mxgraph.electrical.electro-mechanical.twoWaySwitch;aspect=fixed;elSwitchState=2;" vertex="1" parent="1">
          <mxGeometry x="924" y="390.25" width="57.69" height="20" as="geometry" />
        </mxCell>
        <mxCell id="BLIlMsvHAk1N6OKUDyT1-58" value="" style="endArrow=none;html=1;rounded=0;exitX=1;exitY=0.5;exitDx=0;exitDy=0;exitPerimeter=0;entryX=0;entryY=0.5;entryDx=0;entryDy=0;" edge="1" target="BLIlMsvHAk1N6OKUDyT1-57" parent="1">
          <mxGeometry width="50" height="50" relative="1" as="geometry">
            <mxPoint x="920" y="400.25" as="sourcePoint" />
            <mxPoint x="948" y="350.25" as="targetPoint" />
          </mxGeometry>
        </mxCell>
        <mxCell id="BLIlMsvHAk1N6OKUDyT1-59" value="" style="edgeStyle=orthogonalEdgeStyle;rounded=0;orthogonalLoop=1;jettySize=auto;html=1;" edge="1" source="BLIlMsvHAk1N6OKUDyT1-60" target="BLIlMsvHAk1N6OKUDyT1-62" parent="1">
          <mxGeometry relative="1" as="geometry" />
        </mxCell>
        <mxCell id="BLIlMsvHAk1N6OKUDyT1-60" value="" style="html=1;shape=mxgraph.electrical.electro-mechanical.twoWaySwitch;elSwitchState=2;flipV=0;flipH=1;" vertex="1" parent="1">
          <mxGeometry x="790" y="390.25" width="57.69" height="20" as="geometry" />
        </mxCell>
        <mxCell id="BLIlMsvHAk1N6OKUDyT1-61" value="" style="rounded=0;whiteSpace=wrap;html=1;" vertex="1" parent="1">
          <mxGeometry x="853" y="373.75" width="50" height="43" as="geometry" />
        </mxCell>
        <mxCell id="BLIlMsvHAk1N6OKUDyT1-62" value="" style="verticalLabelPosition=bottom;shadow=0;dashed=0;align=center;html=1;verticalAlign=top;shape=mxgraph.electrical.logic_gates.bandpass_filter;" vertex="1" parent="1">
          <mxGeometry x="860" y="380.25" width="52" height="46" as="geometry" />
        </mxCell>
        <mxCell id="BLIlMsvHAk1N6OKUDyT1-63" value="" style="endArrow=none;html=1;rounded=0;" edge="1" parent="1">
          <mxGeometry width="50" height="50" relative="1" as="geometry">
            <mxPoint x="848" y="400.25" as="sourcePoint" />
            <mxPoint x="850" y="400.25" as="targetPoint" />
          </mxGeometry>
        </mxCell>
        <mxCell id="BLIlMsvHAk1N6OKUDyT1-64" value="" style="endArrow=none;html=1;rounded=0;exitX=1.005;exitY=0.436;exitDx=0;exitDy=0;exitPerimeter=0;" edge="1" source="BLIlMsvHAk1N6OKUDyT1-62" parent="1">
          <mxGeometry width="50" height="50" relative="1" as="geometry">
            <mxPoint x="950" y="420.25" as="sourcePoint" />
            <mxPoint x="920" y="400.25" as="targetPoint" />
          </mxGeometry>
        </mxCell>
        <mxCell id="BLIlMsvHAk1N6OKUDyT1-65" value="" style="verticalLabelPosition=bottom;shadow=0;dashed=0;align=center;html=1;verticalAlign=top;shape=mxgraph.electrical.abstract.amplifier;" vertex="1" parent="1">
          <mxGeometry x="1000" y="264.6" width="50" height="50" as="geometry" />
        </mxCell>
        <mxCell id="BLIlMsvHAk1N6OKUDyT1-66" value="" style="verticalLabelPosition=bottom;shadow=0;dashed=0;align=center;html=1;verticalAlign=top;shape=mxgraph.electrical.abstract.amplifier;" vertex="1" parent="1">
          <mxGeometry x="1050" y="264.6" width="50" height="50" as="geometry" />
        </mxCell>
        <mxCell id="BLIlMsvHAk1N6OKUDyT1-67" value="" style="verticalLabelPosition=bottom;shadow=0;dashed=0;align=center;html=1;verticalAlign=top;shape=mxgraph.electrical.abstract.amplifier;" vertex="1" parent="1">
          <mxGeometry x="1100" y="264.6" width="50" height="50" as="geometry" />
        </mxCell>
        <mxCell id="BLIlMsvHAk1N6OKUDyT1-68" value="" style="rounded=0;whiteSpace=wrap;html=1;" vertex="1" parent="1">
          <mxGeometry x="1138.31" y="329.6" width="40" height="40" as="geometry" />
        </mxCell>
        <mxCell id="BLIlMsvHAk1N6OKUDyT1-69" value="" style="endArrow=classic;html=1;rounded=0;exitX=0;exitY=0.5;exitDx=0;exitDy=0;entryX=0.445;entryY=0.803;entryDx=0;entryDy=0;entryPerimeter=0;" edge="1" parent="1" source="BLIlMsvHAk1N6OKUDyT1-68" target="BLIlMsvHAk1N6OKUDyT1-67">
          <mxGeometry width="50" height="50" relative="1" as="geometry">
            <mxPoint x="1068.31" y="429.85" as="sourcePoint" />
            <mxPoint x="1098.31" y="349.6" as="targetPoint" />
            <Array as="points">
              <mxPoint x="1122.31" y="349.6" />
            </Array>
          </mxGeometry>
        </mxCell>
        <mxCell id="BLIlMsvHAk1N6OKUDyT1-70" value="" style="endArrow=classic;html=1;rounded=0;entryX=0.448;entryY=0.817;entryDx=0;entryDy=0;entryPerimeter=0;" edge="1" parent="1" target="BLIlMsvHAk1N6OKUDyT1-66">
          <mxGeometry width="50" height="50" relative="1" as="geometry">
            <mxPoint x="1138.31" y="349.6" as="sourcePoint" />
            <mxPoint x="1108.31" y="359.6" as="targetPoint" />
            <Array as="points">
              <mxPoint x="1072.31" y="349.6" />
            </Array>
          </mxGeometry>
        </mxCell>
        <mxCell id="BLIlMsvHAk1N6OKUDyT1-71" value="" style="endArrow=classic;html=1;rounded=0;entryX=0.452;entryY=0.803;entryDx=0;entryDy=0;entryPerimeter=0;" edge="1" parent="1" target="BLIlMsvHAk1N6OKUDyT1-65">
          <mxGeometry width="50" height="50" relative="1" as="geometry">
            <mxPoint x="1138.31" y="349.6" as="sourcePoint" />
            <mxPoint x="1108.31" y="359.6" as="targetPoint" />
            <Array as="points">
              <mxPoint x="1022.31" y="349.6" />
            </Array>
          </mxGeometry>
        </mxCell>
        <mxCell id="BLIlMsvHAk1N6OKUDyT1-72" value="" style="pointerEvents=1;verticalLabelPosition=bottom;shadow=0;dashed=0;align=center;html=1;verticalAlign=top;shape=mxgraph.electrical.electro-mechanical.loudspeaker;" vertex="1" parent="1">
          <mxGeometry x="1248.31" y="264.6" width="25" height="50" as="geometry" />
        </mxCell>
        <mxCell id="BLIlMsvHAk1N6OKUDyT1-74" value="" style="endArrow=classic;html=1;rounded=0;entryX=0.5;entryY=0;entryDx=0;entryDy=0;" edge="1" parent="1" target="BLIlMsvHAk1N6OKUDyT1-68">
          <mxGeometry width="50" height="50" relative="1" as="geometry">
            <mxPoint x="1158.31" y="289.6" as="sourcePoint" />
            <mxPoint x="1098.31" y="339.6" as="targetPoint" />
          </mxGeometry>
        </mxCell>
        <mxCell id="BLIlMsvHAk1N6OKUDyT1-76" value="" style="verticalLabelPosition=bottom;shadow=0;dashed=0;align=center;html=1;verticalAlign=top;shape=mxgraph.electrical.opto_electronics.led_1;pointerEvents=1;rotation=-180;" vertex="1" parent="1">
          <mxGeometry x="1143.31" y="339.6" width="30" height="20" as="geometry" />
        </mxCell>
        <mxCell id="BLIlMsvHAk1N6OKUDyT1-77" value="" style="shape=sumEllipse;perimeter=ellipsePerimeter;whiteSpace=wrap;html=1;backgroundOutline=1;" vertex="1" parent="1">
          <mxGeometry x="1187.31" y="269.6" width="40" height="40" as="geometry" />
        </mxCell>
        <mxCell id="BLIlMsvHAk1N6OKUDyT1-80" value="" style="endArrow=none;html=1;rounded=0;exitX=1;exitY=0.12;exitDx=0;exitDy=0;entryX=0;entryY=0.5;entryDx=0;entryDy=0;entryPerimeter=0;" edge="1" parent="1" source="BLIlMsvHAk1N6OKUDyT1-57" target="BLIlMsvHAk1N6OKUDyT1-65">
          <mxGeometry width="50" height="50" relative="1" as="geometry">
            <mxPoint x="1070" y="370" as="sourcePoint" />
            <mxPoint x="1120" y="320" as="targetPoint" />
            <Array as="points">
              <mxPoint x="982" y="290" />
            </Array>
          </mxGeometry>
        </mxCell>
        <mxCell id="BLIlMsvHAk1N6OKUDyT1-81" value="" style="endArrow=none;html=1;rounded=0;exitX=1;exitY=0.5;exitDx=0;exitDy=0;exitPerimeter=0;entryX=0;entryY=0.5;entryDx=0;entryDy=0;" edge="1" parent="1" source="BLIlMsvHAk1N6OKUDyT1-67" target="BLIlMsvHAk1N6OKUDyT1-77">
          <mxGeometry width="50" height="50" relative="1" as="geometry">
            <mxPoint x="1170" y="370" as="sourcePoint" />
            <mxPoint x="1220" y="320" as="targetPoint" />
          </mxGeometry>
        </mxCell>
        <mxCell id="BLIlMsvHAk1N6OKUDyT1-82" value="" style="endArrow=none;html=1;rounded=0;entryX=0;entryY=0.4;entryDx=0;entryDy=0;entryPerimeter=0;exitX=0;exitY=0.6;exitDx=0;exitDy=0;exitPerimeter=0;" edge="1" parent="1" source="BLIlMsvHAk1N6OKUDyT1-72" target="BLIlMsvHAk1N6OKUDyT1-72">
          <mxGeometry width="50" height="50" relative="1" as="geometry">
            <mxPoint x="1240" y="305" as="sourcePoint" />
            <mxPoint x="1220" y="325" as="targetPoint" />
          </mxGeometry>
        </mxCell>
        <mxCell id="BLIlMsvHAk1N6OKUDyT1-83" value="" style="endArrow=none;html=1;rounded=0;entryX=-0.002;entryY=0.499;entryDx=0;entryDy=0;entryPerimeter=0;exitX=1;exitY=0.5;exitDx=0;exitDy=0;" edge="1" parent="1" source="BLIlMsvHAk1N6OKUDyT1-77" target="BLIlMsvHAk1N6OKUDyT1-72">
          <mxGeometry width="50" height="50" relative="1" as="geometry">
            <mxPoint x="1170" y="370" as="sourcePoint" />
            <mxPoint x="1220" y="320" as="targetPoint" />
          </mxGeometry>
        </mxCell>
        <mxCell id="BLIlMsvHAk1N6OKUDyT1-85" value="" style="shape=sumEllipse;perimeter=ellipsePerimeter;whiteSpace=wrap;html=1;backgroundOutline=1;" vertex="1" parent="1">
          <mxGeometry x="1187.31" y="460" width="40" height="40" as="geometry" />
        </mxCell>
        <mxCell id="BLIlMsvHAk1N6OKUDyT1-86" value="" style="verticalLabelPosition=bottom;shadow=0;dashed=0;align=center;html=1;verticalAlign=top;shape=mxgraph.electrical.radio.microphone_1;rotation=-180;" vertex="1" parent="1">
          <mxGeometry x="1248.31" y="465" width="30" height="30" as="geometry" />
        </mxCell>
        <mxCell id="BLIlMsvHAk1N6OKUDyT1-87" value="" style="endArrow=none;html=1;rounded=0;exitX=1;exitY=0.5;exitDx=0;exitDy=0;entryX=1;entryY=0.5;entryDx=0;entryDy=0;entryPerimeter=0;" edge="1" parent="1" source="BLIlMsvHAk1N6OKUDyT1-85" target="BLIlMsvHAk1N6OKUDyT1-86">
          <mxGeometry width="50" height="50" relative="1" as="geometry">
            <mxPoint x="1220" y="485" as="sourcePoint" />
            <mxPoint x="1270" y="435" as="targetPoint" />
          </mxGeometry>
        </mxCell>
        <mxCell id="BLIlMsvHAk1N6OKUDyT1-88" value="" style="endArrow=classic;html=1;rounded=0;exitX=0.5;exitY=1;exitDx=0;exitDy=0;exitPerimeter=0;entryX=0.5;entryY=0;entryDx=0;entryDy=0;" edge="1" parent="1" source="BLIlMsvHAk1N6OKUDyT1-31" target="BLIlMsvHAk1N6OKUDyT1-85">
          <mxGeometry width="50" height="50" relative="1" as="geometry">
            <mxPoint x="1220" y="430" as="sourcePoint" />
            <mxPoint x="1270" y="380" as="targetPoint" />
          </mxGeometry>
        </mxCell>
        <mxCell id="BLIlMsvHAk1N6OKUDyT1-89" value="" style="endArrow=classic;html=1;rounded=0;exitX=0.5;exitY=0;exitDx=0;exitDy=0;exitPerimeter=0;entryX=0.5;entryY=1;entryDx=0;entryDy=0;" edge="1" parent="1" source="BLIlMsvHAk1N6OKUDyT1-31" target="BLIlMsvHAk1N6OKUDyT1-77">
          <mxGeometry width="50" height="50" relative="1" as="geometry">
            <mxPoint x="1220" y="360" as="sourcePoint" />
            <mxPoint x="1270" y="310" as="targetPoint" />
          </mxGeometry>
        </mxCell>
        <mxCell id="BLIlMsvHAk1N6OKUDyT1-90" value="" style="verticalLabelPosition=bottom;shadow=0;dashed=0;align=center;html=1;verticalAlign=top;shape=mxgraph.electrical.abstract.amplifier;rotation=-180;" vertex="1" parent="1">
          <mxGeometry x="1050" y="455" width="50" height="50" as="geometry" />
        </mxCell>
        <mxCell id="BLIlMsvHAk1N6OKUDyT1-91" value="" style="pointerEvents=1;verticalLabelPosition=bottom;shadow=0;dashed=0;align=center;html=1;verticalAlign=top;shape=mxgraph.electrical.resistors.resistor_2;rotation=-90;" vertex="1" parent="1">
          <mxGeometry x="1020" y="475" width="30" height="10" as="geometry" />
        </mxCell>
        <mxCell id="BLIlMsvHAk1N6OKUDyT1-98" value="" style="endArrow=none;html=1;rounded=0;entryX=1;entryY=0.5;entryDx=0;entryDy=0;entryPerimeter=0;exitX=1;exitY=0.88;exitDx=0;exitDy=0;" edge="1" parent="1" source="BLIlMsvHAk1N6OKUDyT1-57" target="BLIlMsvHAk1N6OKUDyT1-90">
          <mxGeometry width="50" height="50" relative="1" as="geometry">
            <mxPoint x="980" y="480" as="sourcePoint" />
            <mxPoint x="1030" y="430" as="targetPoint" />
            <Array as="points">
              <mxPoint x="982" y="480" />
            </Array>
          </mxGeometry>
        </mxCell>
        <mxCell id="BLIlMsvHAk1N6OKUDyT1-99" value="" style="endArrow=none;html=1;rounded=0;exitX=0;exitY=0.5;exitDx=0;exitDy=0;exitPerimeter=0;entryX=0;entryY=0.5;entryDx=0;entryDy=0;" edge="1" parent="1" source="BLIlMsvHAk1N6OKUDyT1-90" target="BLIlMsvHAk1N6OKUDyT1-85">
          <mxGeometry width="50" height="50" relative="1" as="geometry">
            <mxPoint x="1160" y="480" as="sourcePoint" />
            <mxPoint x="1210" y="430" as="targetPoint" />
          </mxGeometry>
        </mxCell>
        <mxCell id="BLIlMsvHAk1N6OKUDyT1-100" value="" style="pointerEvents=1;verticalLabelPosition=bottom;shadow=0;dashed=0;align=center;html=1;verticalAlign=top;shape=mxgraph.electrical.signal_sources.source;aspect=fixed;points=[[0.5,0,0],[1,0.5,0],[0.5,1,0],[0,0.5,0]];elSignalType=square;" vertex="1" parent="1">
          <mxGeometry x="640" y="520" width="40" height="40" as="geometry" />
        </mxCell>
        <mxCell id="BLIlMsvHAk1N6OKUDyT1-101" value="" style="endArrow=classic;html=1;rounded=0;exitX=0;exitY=0.5;exitDx=0;exitDy=0;exitPerimeter=0;" edge="1" parent="1" source="BLIlMsvHAk1N6OKUDyT1-100">
          <mxGeometry width="50" height="50" relative="1" as="geometry">
            <mxPoint x="620" y="510" as="sourcePoint" />
            <mxPoint x="620" y="460" as="targetPoint" />
            <Array as="points">
              <mxPoint x="620" y="540" />
            </Array>
          </mxGeometry>
        </mxCell>
        <mxCell id="BLIlMsvHAk1N6OKUDyT1-102" value="PA" style="text;html=1;align=center;verticalAlign=middle;whiteSpace=wrap;rounded=0;" vertex="1" parent="1">
          <mxGeometry x="260" y="465" width="60" height="30" as="geometry" />
        </mxCell>
        <mxCell id="BLIlMsvHAk1N6OKUDyT1-103" value="&lt;div&gt;BPFs&lt;/div&gt;" style="text;html=1;align=center;verticalAlign=middle;whiteSpace=wrap;rounded=0;" vertex="1" parent="1">
          <mxGeometry x="396" y="430" width="60" height="30" as="geometry" />
        </mxCell>
        <mxCell id="BLIlMsvHAk1N6OKUDyT1-104" value="Xtal Filters" style="text;html=1;align=center;verticalAlign=middle;whiteSpace=wrap;rounded=0;" vertex="1" parent="1">
          <mxGeometry x="856" y="426.25" width="60" height="30" as="geometry" />
        </mxCell>
        <mxCell id="BLIlMsvHAk1N6OKUDyT1-105" value="BFO" style="text;html=1;align=center;verticalAlign=middle;whiteSpace=wrap;rounded=0;" vertex="1" parent="1">
          <mxGeometry x="1218.31" y="378.75" width="60" height="30" as="geometry" />
        </mxCell>
        <mxCell id="BLIlMsvHAk1N6OKUDyT1-106" value="VFO Si5351" style="text;html=1;align=center;verticalAlign=middle;whiteSpace=wrap;rounded=0;" vertex="1" parent="1">
          <mxGeometry x="664" y="385" width="60" height="30" as="geometry" />
        </mxCell>
        <mxCell id="BLIlMsvHAk1N6OKUDyT1-107" value="CW carrier Si5351" style="text;html=1;align=center;verticalAlign=middle;whiteSpace=wrap;rounded=0;" vertex="1" parent="1">
          <mxGeometry x="688" y="525" width="60" height="30" as="geometry" />
        </mxCell>
        <mxCell id="BLIlMsvHAk1N6OKUDyT1-108" value="RF Amp w/ bypass" style="text;html=1;align=center;verticalAlign=middle;whiteSpace=wrap;rounded=0;" vertex="1" parent="1">
          <mxGeometry x="544" y="279.6" width="60" height="30" as="geometry" />
        </mxCell>
        <mxCell id="BLIlMsvHAk1N6OKUDyT1-109" value="w/ waveform shaping" style="text;html=1;align=center;verticalAlign=middle;whiteSpace=wrap;rounded=0;" vertex="1" parent="1">
          <mxGeometry x="539" y="485" width="70" height="30" as="geometry" />
        </mxCell>
        <mxCell id="BLIlMsvHAk1N6OKUDyT1-110" value="IF derived AGC" style="text;html=1;align=center;verticalAlign=middle;whiteSpace=wrap;rounded=0;" vertex="1" parent="1">
          <mxGeometry x="1040" y="230" width="60" height="30" as="geometry" />
        </mxCell>
        <mxCell id="BLIlMsvHAk1N6OKUDyT1-111" value="IF" style="text;html=1;align=center;verticalAlign=middle;whiteSpace=wrap;rounded=0;" vertex="1" parent="1">
          <mxGeometry x="1228.31" y="485" width="20" height="10" as="geometry" />
        </mxCell>
        <mxCell id="BLIlMsvHAk1N6OKUDyT1-113" value="RF" style="text;html=1;align=center;verticalAlign=middle;whiteSpace=wrap;rounded=0;" vertex="1" parent="1">
          <mxGeometry x="1167.31" y="485" width="20" height="10" as="geometry" />
        </mxCell>
      </root>
    </mxGraphModel>
  </diagram>
</mxfile>
